<svg version="1.1" id="Layer_1" xmlns="http://www.w3.org/2000/svg" xmlns:xlink="http://www.w3.org/1999/xlink" x="0px" y="0px"
	 width="100%" viewBox="0 0 464 656" enable-background="new 0 0 464 656" xml:space="preserve">
<path fill="#000000" opacity="1.000000" stroke="none" 
	d="
M465.000000,461.535339 
	C445.679016,461.973694 426.358002,461.925995 407.037018,461.925720 
	C371.752136,461.925232 336.467285,461.960327 301.182404,461.961945 
	C294.528534,461.962250 290.973877,455.932495 294.104492,450.020050 
	C295.150452,448.044708 297.136993,448.189056 298.921631,448.058258 
	C304.745605,447.631683 310.524078,446.887726 316.209076,445.556702 
	C321.959656,444.210327 327.283356,441.991516 331.570801,437.714020 
	C338.351532,430.949036 338.786255,422.684601 337.120178,414.004608 
	C333.796631,396.689392 326.385193,380.802032 319.607697,364.708405 
	C309.206329,340.009583 298.895782,315.275146 289.309631,290.245667 
	C288.735657,288.747040 287.649475,287.289459 288.599792,285.083496 
	C295.965088,283.973328 303.290741,285.625000 310.480164,287.369781 
	C343.364441,295.350281 366.296204,314.927155 379.143738,346.408234 
	C388.197937,368.594269 397.136230,390.824982 408.472076,412.030579 
	C420.470184,434.475037 438.206024,447.394073 464.550842,448.022736 
	C465.000000,452.356903 465.000000,456.713806 465.000000,461.535339 
z"/>
<path fill="#000000" opacity="1.000000" stroke="none" 
	d="
M150.926071,401.733582 
	C145.793503,441.079376 145.153076,479.847992 155.268921,518.151245 
	C162.828094,546.773926 175.829346,572.348633 198.966599,591.680908 
	C221.521896,610.526855 247.731155,620.419006 276.984802,622.880310 
	C299.399567,624.766174 321.201904,622.631531 342.308899,614.691162 
	C362.308105,607.167480 378.219727,593.912415 392.464264,578.418335 
	C401.490814,568.600037 410.194641,558.476929 417.655090,547.414734 
	C420.934509,542.552063 423.549225,544.791870 427.071167,546.714905 
	C431.130981,548.931580 430.258698,551.237122 428.402283,554.340820 
	C412.074249,581.639526 392.780182,606.260620 365.774841,623.925720 
	C345.483521,637.198975 323.075317,644.888733 299.168030,647.989502 
	C267.248352,652.129395 235.712128,650.169067 204.937576,640.161438 
	C166.299576,627.596619 136.745102,603.277710 114.573334,569.617371 
	C96.077728,541.538086 85.592468,510.671997 82.521530,477.186096 
	C78.153580,429.557465 85.526459,384.198914 109.265755,342.291229 
	C139.361145,289.162994 184.891754,257.483978 244.946777,246.632706 
	C286.665588,239.094574 326.074524,246.047913 363.590332,265.345215 
	C369.276947,268.270294 375.001068,271.857513 381.991638,270.188293 
	C392.679749,267.636292 397.152863,259.315369 399.944855,249.965363 
	C401.407532,245.067062 403.684174,243.167984 408.754425,243.671814 
	C411.803406,243.974777 413.372101,244.919312 413.571686,248.019302 
	C413.999542,254.664566 414.544403,261.302246 414.977692,267.947174 
	C417.220398,302.340851 419.445007,336.735748 421.668518,371.130676 
	C421.825134,373.553467 422.752869,376.517303 418.990631,376.970093 
	C415.491364,377.391235 412.130524,377.689728 410.680359,372.929413 
	C405.469391,355.823914 398.723236,339.331512 389.315735,324.066559 
	C365.543671,285.493103 330.449677,267.052277 285.609589,266.199036 
	C254.508286,265.607269 226.423553,274.216888 202.183563,294.094635 
	C188.814056,305.058105 179.086151,318.941315 171.318176,334.219238 
	C160.572464,355.353668 154.241806,377.867065 150.926071,401.733582 
z"/>
<path fill="#000000" opacity="1.000000" stroke="none" 
	d="
M119.720245,295.697388 
	C110.956726,305.490173 103.719521,315.991394 96.794090,326.909424 
	C94.859985,325.081818 96.187561,323.790283 96.707199,322.576172 
	C121.545105,264.544006 146.437668,206.535248 171.266068,148.499023 
	C189.543701,105.775154 207.806595,63.044598 225.875626,20.232433 
	C227.704681,15.898759 230.180496,14.745785 234.576736,14.806554 
	C238.876694,14.865991 240.971344,16.354090 242.653702,20.390987 
	C271.357025,89.265953 300.238525,158.066650 329.057404,226.893494 
	C329.670654,228.358139 330.859375,229.796402 329.548340,232.180344 
	C324.283722,231.109497 318.843079,229.909698 313.366364,228.906693 
	C298.254486,226.139114 283.053253,224.429031 267.678223,226.035034 
	C263.676605,226.453018 261.790924,224.945953 260.259613,221.248947 
	C247.003922,189.246063 233.538544,157.330048 220.128647,125.391068 
	C219.311050,123.443726 218.683899,121.369736 217.094910,119.846649 
	C214.952438,120.820183 214.594162,122.722351 213.893860,124.346184 
	C194.304245,169.770569 174.699966,215.188751 155.215088,260.658081 
	C153.708023,264.174866 151.600098,266.793030 148.567230,269.074432 
	C138.162781,276.900757 128.433670,285.498383 119.720245,295.697388 
M228.812057,78.135963 
	C230.008255,79.424805 231.241104,80.459953 233.089355,78.608231 
	C232.129242,76.797302 231.169724,74.987495 229.512314,71.861320 
	C230.001892,74.939453 227.737106,75.792107 228.812057,78.135963 
z"/>
<path fill="#000000" opacity="1.000000" stroke="none" 
	d="
M47.300400,426.305725 
	C56.588543,413.551208 63.146568,399.627380 69.895309,385.813995 
	C70.264442,385.970978 70.633575,386.127960 71.002708,386.284943 
	C69.465523,393.346466 67.681793,400.364960 66.441139,407.478210 
	C63.634808,423.568115 61.917782,439.790802 62.436874,456.143127 
	C62.586830,460.866943 60.953724,462.149231 56.457405,462.090240 
	C40.462631,461.880219 24.462831,461.915894 8.466599,462.053009 
	C4.581791,462.086273 2.791622,460.917267 3.489135,456.847839 
	C3.711525,455.550354 3.693033,454.171631 3.542125,452.857941 
	C3.161167,449.541687 4.539418,448.117554 7.863365,447.573303 
	C12.617698,446.794800 17.287394,445.479675 21.976114,444.324249 
	C32.652687,441.693268 40.974667,435.701233 47.300400,426.305725 
z"/>
</svg>